# xmcd CD database file
#
# Track frame offsets:
#	150
#	1011
#	21955
#	33640
#	52595
#	77046
#	96140
#	116239
#	132441
#	154962
#	173358
#	190652
#	206466
#	219561
#
# Disc length: 2989 seconds
#
# Revision: 0
# Processed by: cddbd v1.5PL3 Copyright (c) Steve Scherf et al.
# Submitted via: CDex 1.40Beta9
#
DISCID=ad0bab0e
DTITLE=Blueshimmel - gefallene Engel
DYEAR=1998
DGENRE=Blues
TTITLE0=intro
TTITLE1=isch will heem no Zweebrigge
TTITLE2=ess Hanghingel iss widder do
TTITLE3=kleener roter Hahn
TTITLE4=gefallene Engel
TTITLE5=ess iss Zeit
TTITLE6=Hanghingel Rap
TTITLE7=ess Geld iss all
TTITLE8=Fieber
TTITLE9=Baby geh net fort
TTITLE10=Blues Himmel
TTITLE11=Net genuuch
TTITLE12=zuu mied
TTITLE13=hol ne!
EXTD=YEAR: 1998 ID3G: 0
EXTT0=
EXTT1=
EXTT2=
EXTT3=
EXTT4=
EXTT5=
EXTT6=
EXTT7=
EXTT8=
EXTT9=
EXTT10=
EXTT11=
EXTT12=
EXTT13=
PLAYORDER=
